HIERARCHY
ROOT hip
{
	OFFSET 0.00 0.00 0.00
	CHANNELS 6  Xposition Yposition Zposition Xrotation Zrotation Yrotation
	JOINT abdomen
	{
		OFFSET 0.000000 3.402643 0.000000
			CHANNELS 3 Xrotation Zrotation Yrotation
		JOINT chest
		{
			OFFSET 0.000000 8.438565 -0.680529
				CHANNELS 3 Xrotation Zrotation Yrotation
			JOINT neck
			{
				OFFSET 0.000000 10.207942 -0.272212
					CHANNELS 3 Xrotation Zrotation Yrotation
				JOINT head
				{
					OFFSET 0.000000 3.130431 0.000000
						CHANNELS 3 Xrotation Zrotation Yrotation
					End Site
					{
						OFFSET 0.000000 0.000000 0.000000
					}
				}
			}
			JOINT lCollar
			{
				OFFSET 3.470700 6.669187 -0.816635
					CHANNELS 3 Yrotation Zrotation Xrotation
				JOINT lShldr
				{
					OFFSET 3.198488 0.000000 0.000000
						CHANNELS 3 Zrotation Yrotation Xrotation
					JOINT lForeArm
					{
						OFFSET 10.139888 0.000000 0.000000
							CHANNELS 3 Yrotation Zrotation Xrotation
						JOINT lHand
						{
							OFFSET 8.370511 0.000000 0.000000
								CHANNELS 3 Zrotation Yrotation Xrotation
							End Site
							{
								OFFSET 0.000000 0.000000 0.000000
							}
						}
					}
				}
			}
			JOINT rCollar
			{
				OFFSET -3.470700 6.669187 -0.816635
					CHANNELS 3 Yrotation Zrotation Xrotation
				JOINT rShldr
				{
					OFFSET -3.198488 0.000000 0.000000
						CHANNELS 3 Zrotation Yrotation Xrotation
					JOINT rForeArm
					{
						OFFSET -10.139888 0.000000 0.000000
							CHANNELS 3 Yrotation Zrotation Xrotation
						JOINT rHand
						{
							OFFSET -8.370511 0.000000 0.000000
								CHANNELS 3 Zrotation Yrotation Xrotation
							End Site
							{
								OFFSET 0.000000 3466037753412897000000000000000000.000000 2487637723578883300000000000000000.000000
							}
						}
					}
				}
			}
		}
	}
	JOINT lThigh 
	{
		OFFSET 5.308129 -1.633274 1.361059
			CHANNELS 3 Xrotation Zrotation Yrotation
		JOINT lShin
		{
			OFFSET -2.041588 -20.007561 0.000000
				CHANNELS 3 Xrotation Zrotation Yrotation
			JOINT lFoot
			{
				OFFSET 0.000000 -19.190928 -1.224953
					CHANNELS 3 Xrotation Yrotation Zrotation
				End Site
				{
					OFFSET 3465778404974666700000000000000000.000000 0.000000 0.000000
				}
			}
		}
	}
	JOINT rThigh
	{
		OFFSET -5.308129 -1.633274 1.361059
			CHANNELS 3 Xrotation Zrotation Yrotation
		JOINT rShin
		{
			OFFSET 2.041588 -20.007561 0.000000
				CHANNELS 3 Xrotation Zrotation Yrotation
			JOINT rFoot
			{
				OFFSET 0.000000 -19.190928 -1.224953
					CHANNELS 3 Xrotation Yrotation Zrotation
				End Site
				{
					OFFSET 0.000000 0.000000 -1.#QNAN0
				}
			}
		}
	}
}
MOTION
Frames: 21
Frame Time: 0.032000
-8.460141 4.731566 40.320984 77.24 15.74 -2.38 15.01 13.15 4.53 -0.22 -0.16 -6.35 -40.07 22.46 16.40 38.29 4.62 22.63 10.68 2.78 -11.70 39.80 -28.00 54.67 8.56 -12.68 6.95 -38.37 8.26 13.45 40.92 12.59 -29.40 -102.96 34.96 21.82 -11.15 6.71 6.65 17.24 0.30 45.04 7.25 25.88 -23.32 69.19 14.33 34.67 1.91 9.37 16.48 7.12 4.06 -15.28 16.15 3.60 13.55 8.81 -7.45 -1.18 
-8.457911 4.738007 40.337221 77.43 15.74 -2.43 14.91 13.26 4.61 -0.17 -0.26 -6.33 -39.96 22.68 16.43 38.28 4.41 22.69 10.54 4.39 -11.88 37.62 -27.58 55.43 8.44 -12.11 6.89 -37.86 8.47 14.43 47.11 12.25 -31.93 -103.05 36.30 20.16 -10.90 5.81 6.55 17.41 -1.96 44.69 7.01 26.01 -23.37 60.98 12.12 30.30 2.61 7.91 17.44 7.10 4.22 -18.81 16.17 3.05 15.39 9.26 -8.37 -1.38 
-8.455822 4.733529 40.327787 77.30 15.74 -2.44 14.99 13.20 4.60 -0.22 -0.22 -6.23 -39.99 22.63 16.39 38.26 4.43 22.67 10.44 5.98 -12.00 35.54 -27.24 56.11 8.28 -11.42 6.82 -37.74 7.82 14.34 53.39 11.77 -34.55 -102.93 37.69 18.59 -10.64 4.94 6.45 17.35 -3.56 44.45 7.05 26.02 -23.36 53.22 10.77 25.89 2.94 6.56 17.32 7.29 4.45 -21.60 16.12 2.51 17.03 8.81 -9.02 -2.05 
-8.462509 4.730554 40.311712 77.12 15.75 -2.34 15.06 13.11 4.53 -0.30 -0.12 -6.15 -40.02 22.57 16.41 38.26 4.49 22.62 10.32 7.50 -12.13 33.46 -26.89 56.77 8.18 -10.66 6.76 -38.24 6.67 13.77 60.08 10.89 -37.33 -102.41 39.15 17.26 -10.40 3.87 6.35 17.33 -4.68 44.28 7.03 26.03 -23.37 46.05 9.54 22.22 2.19 5.49 17.01 7.48 4.67 -23.43 16.18 1.97 18.46 8.22 -9.63 -2.91 
-8.469087 4.733499 40.299535 77.00 15.75 -2.27 15.17 13.09 4.64 -0.64 0.21 -6.72 -39.73 23.14 16.53 38.63 3.85 22.96 10.81 8.61 -11.96 31.42 -26.48 57.42 8.03 -9.70 6.68 -39.38 5.15 13.01 67.75 9.62 -39.82 -101.52 40.62 15.96 -10.14 2.55 5.90 17.04 -5.24 44.21 7.00 26.04 -23.37 39.33 8.39 19.61 1.27 4.53 16.15 7.59 4.79 -24.57 16.21 1.53 19.70 7.75 -9.71 -3.93 
-8.526656 4.773657 40.283225 77.35 15.46 -2.04 14.96 13.49 4.93 -0.80 0.33 -7.31 -39.30 23.95 16.33 38.62 3.22 23.28 11.26 9.44 -11.77 29.81 -25.96 57.97 8.00 -8.80 6.61 -40.62 3.61 12.27 73.75 8.40 -41.71 -100.79 41.81 15.43 -9.91 1.77 5.42 16.65 -5.38 43.75 6.56 26.34 -23.46 34.78 7.74 18.50 0.75 3.70 15.15 7.28 5.17 -24.66 16.12 1.39 20.10 7.60 -9.51 -4.64 
-8.573807 4.779739 40.276259 77.08 16.70 -2.85 15.43 12.27 6.33 -0.88 0.35 -8.29 -38.75 24.92 16.07 38.75 1.95 24.36 11.68 10.64 -11.32 28.12 -25.32 58.55 6.78 -9.27 6.55 -40.82 2.25 9.93 79.16 7.18 -43.89 -98.05 44.68 14.35 -11.28 -1.37 5.86 16.12 -6.06 44.13 7.11 25.08 -22.39 29.13 7.50 17.43 -0.01 2.74 14.00 7.56 3.95 -24.18 15.96 1.18 21.20 7.56 -9.32 -5.69 
-8.580557 4.810231 40.303789 76.93 17.28 -3.82 15.44 12.14 7.96 -0.23 -0.17 -9.52 -38.62 25.16 16.05 38.81 1.60 24.76 11.63 12.10 -10.95 27.04 -24.55 58.75 5.92 -10.96 6.56 -39.87 1.35 8.38 81.40 5.73 -45.86 -96.11 46.60 13.78 -11.55 -2.84 5.71 15.40 -6.48 44.11 7.87 23.95 -22.63 24.15 7.27 18.14 -0.28 2.30 13.39 7.41 3.32 -22.12 16.07 1.21 20.97 7.32 -8.31 -6.60 
-8.564609 4.880282 40.338131 78.04 16.57 -4.16 14.64 13.02 8.30 -0.00 -0.42 -9.74 -38.49 25.37 16.01 38.73 1.32 24.52 11.23 13.62 -10.46 26.02 -23.16 59.57 5.66 -12.13 6.60 -39.30 0.78 8.51 82.55 4.40 -47.70 -94.16 48.25 13.55 -11.58 -4.08 5.58 15.50 -5.73 44.21 7.28 24.50 -21.19 19.43 7.43 18.08 -0.54 3.79 13.52 6.31 3.77 -21.08 15.92 1.03 21.45 7.85 -6.68 -6.54 
-8.545114 4.886715 40.349634 78.58 16.09 -4.50 14.12 13.46 8.11 0.22 -0.48 -9.90 -38.30 25.69 15.94 38.52 0.96 24.00 10.69 15.09 -9.83 24.92 -21.43 60.21 5.45 -12.42 6.59 -38.95 1.32 10.33 83.87 3.01 -49.55 -91.80 49.82 13.78 -11.30 -5.39 5.46 16.11 -5.66 44.19 6.82 24.78 -19.10 17.93 6.75 19.27 -1.07 5.94 13.62 5.86 3.93 -20.77 15.67 0.92 22.79 8.54 -5.93 -6.76 
-8.247108 10.522829 40.167829 94.17 24.33 -0.58 2.43 -0.22 -0.21 3.77 0.04 -0.23 -13.93 -1.76 0.17 2.32 -0.73 -0.38 -7.21 26.65 6.10 -44.23 -5.82 22.58 -12.08 -32.91 -6.20 -4.71 -15.12 8.77 7.98 -11.59 4.33 17.60 5.22 29.50 15.46 30.27 10.45 -9.36 -14.38 -24.97 -19.32 28.93 -4.00 24.94 -3.77 -1.71 24.50 39.97 -12.38 -23.37 -14.24 1.62 39.49 4.62 2.51 19.33 -29.82 10.53 
-8.247108 10.555945 40.167829 94.17 24.33 -0.58 1.70 -0.15 -0.15 2.64 0.02 -0.16 -18.90 -1.61 0.34 -0.12 -0.62 -0.32 -3.73 25.44 4.97 -44.50 -9.68 20.29 -11.73 -32.86 -11.15 4.69 -11.66 -9.70 5.00 -10.83 3.57 17.71 4.98 28.99 19.95 32.29 10.28 -12.27 -22.67 -27.06 -15.42 27.90 -2.28 25.90 -3.81 -1.79 15.41 28.06 -9.67 -18.07 -14.37 0.87 42.79 4.66 2.90 11.41 -21.33 7.75 
-8.247108 10.589063 40.167829 94.17 24.33 -0.58 0.97 -0.08 -0.08 1.50 0.01 -0.09 -23.88 -1.46 0.51 -2.56 -0.50 -0.26 -0.32 24.18 3.92 -44.62 -13.54 18.01 -11.39 -32.84 -16.09 12.43 -5.56 -27.17 2.03 -10.03 2.85 17.82 4.74 28.48 24.55 34.29 9.91 -15.03 -31.05 -28.83 -11.54 26.94 -0.57 26.93 -3.85 -1.89 4.91 16.65 -5.55 -13.94 -14.59 0.36 48.04 4.73 3.52 2.43 -12.97 4.67 
-8.247108 10.623248 40.167829 94.17 24.33 -0.58 0.22 -0.02 -0.02 0.34 0.00 -0.02 -29.02 -1.30 0.68 -5.07 -0.39 -0.20 3.14 22.81 2.94 -44.58 -17.52 15.60 -11.02 -32.84 -21.19 18.10 2.79 -44.14 -1.00 -9.16 2.16 17.93 4.49 27.95 29.44 36.32 9.32 -17.86 -39.76 -30.31 -7.51 25.89 1.19 27.92 -3.91 -1.98 -5.63 4.62 -1.65 -8.76 -14.75 -0.35 52.06 4.81 3.99 -6.20 -4.23 1.67 
-8.247108 10.662773 40.167829 93.89 24.36 1.10 0.12 0.13 0.57 -0.37 0.16 -0.01 -32.47 -1.19 0.68 -6.80 -0.30 0.13 7.08 21.17 1.93 -44.29 -22.13 12.73 -10.62 -32.88 -27.10 21.39 13.98 -63.13 -4.48 -8.13 1.41 18.07 4.21 27.34 35.28 38.60 8.34 -21.28 -49.90 -31.50 -11.15 26.92 2.88 37.48 -3.69 -2.54 -17.01 -2.34 1.05 -4.79 -14.09 -1.11 53.84 4.80 3.66 -12.37 0.16 0.59 
-8.247108 10.695890 40.167829 93.18 24.43 5.31 1.09 0.39 1.93 -0.27 0.57 -0.11 -32.70 -1.16 0.31 -6.99 -0.29 0.66 10.32 19.76 1.19 -43.96 -26.87 10.74 -19.37 -33.04 -23.18 23.93 7.41 -64.98 -7.39 -7.22 0.84 18.19 3.97 26.83 40.37 40.45 7.26 -24.56 -58.42 -31.86 -25.82 31.81 4.28 56.13 -2.82 -3.41 -26.34 -1.35 2.13 -4.99 -12.49 -1.54 54.53 4.62 2.38 -15.17 -3.36 2.01 
-8.247108 11.010442 40.167829 92.22 24.51 11.11 2.63 0.73 3.76 0.20 1.12 -0.26 -31.49 -1.17 -0.49 -6.52 -0.30 0.89 13.51 18.30 0.54 -43.43 -31.79 8.72 -30.14 -34.07 -17.37 26.60 -2.85 -64.13 -10.28 -6.29 0.32 18.31 3.74 26.32 45.64 42.21 5.94 -28.81 -66.93 -31.09 -45.72 38.47 5.31 74.50 -1.87 -3.86 -30.31 0.70 3.93 -6.94 -10.96 -1.91 54.45 4.39 0.49 -16.12 -10.63 4.56 
-8.247108 11.422882 40.167829 91.23 24.61 17.34 4.27 1.08 5.66 0.79 1.70 -0.41 -29.72 -1.19 -1.75 -5.82 -0.33 0.24 16.65 16.81 -0.02 -42.66 -36.69 6.53 -40.94 -35.99 -11.81 29.19 -13.13 -63.75 -13.16 -5.33 -0.16 18.42 3.50 25.80 51.12 43.87 4.36 -35.87 -75.37 -27.41 -66.76 43.36 4.81 88.65 -1.41 -3.98 -29.27 1.59 8.32 -9.31 -9.93 -2.21 54.26 4.10 -1.54 -16.06 -18.97 7.28 
-8.247108 11.848629 40.167829 90.34 24.69 23.12 5.71 1.38 7.33 1.31 2.21 -0.52 -28.10 -1.20 -3.55 -5.21 -0.35 -1.77 19.92 15.78 -0.18 -43.85 -45.94 2.33 -39.00 -34.35 -6.70 36.88 -17.06 -65.26 -13.63 -4.53 -0.28 18.29 -0.76 25.32 73.54 45.01 -5.86 -157.85 -72.28 72.25 -86.22 44.44 1.83 98.87 -1.52 -3.88 -26.96 -0.44 13.69 -11.37 -9.36 -2.40 55.03 3.81 -3.34 -16.38 -26.32 9.48 
-8.247108 12.261072 40.167829 89.56 24.76 27.55 6.91 1.60 8.56 1.67 2.63 -0.59 -27.06 -1.19 -5.54 -4.92 -0.34 -4.76 23.15 15.02 -0.21 -47.15 -57.38 -0.13 -30.32 -29.71 -3.29 50.49 -17.52 -67.47 -12.74 -4.19 -0.24 22.00 -4.81 24.93 101.65 40.56 -17.83 -177.60 -33.68 58.92 -101.51 42.56 -2.38 105.94 -1.88 -3.70 -26.16 -6.28 16.65 -12.64 -9.03 -2.45 56.68 3.56 -4.82 -17.38 -31.40 10.87 
-8.247108 12.673515 40.167829 88.68 24.82 30.77 8.27 1.75 9.48 1.95 3.07 -0.66 -26.46 -1.17 -7.42 -4.86 -0.34 -8.04 26.26 14.04 -0.39 -49.43 -66.45 -0.72 -28.44 -28.71 -3.80 68.15 -19.03 -66.37 -12.22 -4.32 -0.24 32.14 -4.14 23.68 117.94 34.21 -21.32 -179.44 3.38 31.17 -113.40 39.75 -6.07 111.71 -2.12 -3.59 -28.48 -14.42 15.49 -13.02 -8.89 -2.47 58.27 3.35 -6.46 -18.24 -34.47 12.13 
